<svg width="767" height="128" viewBox="0 0 767 128" fill="none" xmlns="http://www.w3.org/2000/svg"><path d="M154.642 125.372V49.3332H123.331V25.7348H214.396V49.3332H182.846V125.372H154.642Z" fill="#333333"></path><path d="M229.694 125.373V25.7353H286.102C306.896 25.7353 318.13 36.7002 318.13 51.2406C318.13 61.252 314.067 68.1647 305.94 72.4553C318.608 76.7459 325.061 85.3271 325.061 97.9606C325.061 114.646 311.916 125.373 288.731 125.373H229.694ZM257.42 65.5426H277.019C286.102 65.5426 290.404 62.2055 290.404 55.2928C290.404 48.6185 286.102 45.0431 277.019 45.0431H257.42V65.5426ZM257.42 105.588H281.321C291.121 105.588 295.901 101.774 295.901 94.3851C295.901 86.9957 291.121 83.1818 281.321 83.1818H257.42V105.588Z" fill="#333333"></path><path d="M339.164 125.373V25.7353H366.89V84.3736L412.064 25.7353H438.595V125.373H410.869V66.7345L365.695 125.373H339.164Z" fill="#333333"></path><path d="M457.715 125.373V25.7353H485.919V62.6822H527.03V25.7353H555.234V125.373H527.03V86.2805H485.919V125.373H457.715Z" fill="#333333"></path><path d="M597.302 125.373V49.3337H565.991V25.7353H657.056V49.3337H625.506V125.373H597.302Z" fill="#333333"></path><path d="M766.999 102.495V122.994C763.413 125.855 758.394 127.285 751.702 127.285C740.229 127.285 732.819 122.994 728.995 114.413C720.151 123.471 708.679 128 694.577 128C673.065 128 657.768 114.89 657.768 94.6287C657.768 84.1406 661.592 75.7978 669.48 70.3153C677.367 64.8329 686.45 61.9725 697.206 61.9725C708.44 61.9725 718 63.8795 726.127 68.1701V65.0712C726.127 52.4378 717.283 46.2403 699.596 46.2403C689.079 46.2403 678.802 49.1007 669.48 54.5831V30.9848C679.758 25.5023 691.947 23.1186 706.528 23.1186C720.63 23.1186 732.341 26.4558 740.946 33.6068C749.789 40.5195 754.092 50.0541 754.092 62.4492V96.059C754.092 101.065 756.482 103.687 761.023 103.687C763.413 103.687 765.565 103.21 766.999 102.495ZM726.127 86.0476C720.39 82.2337 713.459 80.3267 705.332 80.3267C693.382 80.3267 685.733 85.0941 685.733 93.1986C685.733 102.018 693.143 106.07 703.659 106.07C713.459 106.07 721.108 102.733 726.366 95.8206V86.0476H726.127Z" fill="#333333"></path><path d="M-2.91769e-05 125.381L53.5398 1.45488e-05H78.1585L131.698 125.381H102.06L89.6313 96.5387H41.589L29.1601 125.381H-2.91769e-05ZM49.7155 75.324H81.5047L65.7296 34.3248L49.7155 75.324Z" fill="#333333"></path></svg>
